<svg height='100px' width='100px'  fill="#7400B3" xmlns="http://www.w3.org/2000/svg" xmlns:xlink="http://www.w3.org/1999/xlink" version="1.1" x="0px" y="0px" viewBox="0 0 100 100" enable-background="new 0 0 100 100" xml:space="preserve"><g><path d="M38.868,44.692c0,2.431-1.971,4.401-4.401,4.401s-4.401-1.971-4.401-4.401s1.971-4.401,4.401-4.401   S38.868,42.261,38.868,44.692z M59.775,40.291c-2.431,0-4.401,1.971-4.401,4.401s1.971,4.401,4.401,4.401s4.401-1.971,4.401-4.401   S62.206,40.291,59.775,40.291z M64.479,73.117c-0.464,0.018-0.903,0.031-1.343,0.045c1.491,4.102,2.968,10.374-1.883,10.54   c-5.018,0.171-4.408-6.401-3.57-10.428c-1.795,0.014-3.252,0-4.403-0.024c0.688,3.829,1.229,10.455-3.271,10.455   c-4.499,0-3.958-6.626-3.27-10.455c-1.222,0.025-2.797,0.039-4.735,0.022c0.838,4.026,1.448,10.601-3.57,10.43   c-4.853-0.166-3.372-6.445-1.879-10.547c-0.372-0.012-0.736-0.023-1.125-0.038c-9.995-0.367-21.458-16.871-14.58-36.22   c6.877-19.348,29.057-18.98,29.057-18.98s22.167-0.368,29.043,18.98C85.827,56.246,74.474,72.75,64.479,73.117z M44.888,44.898   c0-4.283-3.472-7.755-7.755-7.755c-4.284,0-7.755,3.473-7.755,7.755c0,4.282,3.471,7.754,7.755,7.754   C41.416,52.652,44.888,49.18,44.888,44.898z M69.953,44.898c0-4.283-3.471-7.755-7.754-7.755c-4.285,0-7.756,3.473-7.756,7.755   c0,4.282,3.471,7.754,7.756,7.754C66.482,52.652,69.953,49.18,69.953,44.898z"></path></g></svg>