<?xml version="1.0" encoding="UTF-8" standalone="no"?>
<svg
   xmlns:dc="http://purl.org/dc/elements/1.1/"
   xmlns:cc="http://creativecommons.org/ns#"
   xmlns:rdf="http://www.w3.org/1999/02/22-rdf-syntax-ns#"
   xmlns:svg="http://www.w3.org/2000/svg"
   xmlns="http://www.w3.org/2000/svg"
   xmlns:sodipodi="http://sodipodi.sourceforge.net/DTD/sodipodi-0.dtd"
   xmlns:inkscape="http://www.inkscape.org/namespaces/inkscape"
   width="16.647993mm"
   height="17.683264mm"
   viewBox="0 0 16.647993 17.683264"
   version="1.1"
   id="svg1494"
   inkscape:version="1.0.2-2 (e86c870879, 2021-01-15)"
   sodipodi:docname="tinyvid-blog-xmen.svg">
  <defs
     id="defs1488" />
  <sodipodi:namedview
     id="base"
     pagecolor="#ffffff"
     bordercolor="#666666"
     borderopacity="1.0"
     inkscape:pageopacity="0.0"
     inkscape:pageshadow="2"
     inkscape:zoom="11.2"
     inkscape:cx="28.173526"
     inkscape:cy="33.439654"
     inkscape:document-units="mm"
     inkscape:current-layer="layer1"
     inkscape:document-rotation="0"
     showgrid="false"
     inkscape:window-width="1624"
     inkscape:window-height="1821"
     inkscape:window-x="76"
     inkscape:window-y="76"
     inkscape:window-maximized="0" />
  <metadata
     id="metadata1491">
    <rdf:RDF>
      <cc:Work
         rdf:about="">
        <dc:format>image/svg+xml</dc:format>
        <dc:type
           rdf:resource="http://purl.org/dc/dcmitype/StillImage" />
        <dc:title></dc:title>
      </cc:Work>
    </rdf:RDF>
  </metadata>
  <g
     inkscape:label="Layer 1"
     inkscape:groupmode="layer"
     id="layer1"
     transform="translate(-14.354571,-18.372652)">
    <rect
       style="fill:#ffffff;fill-opacity:1;stroke-width:0.264583"
       id="rect2069"
       width="14.622953"
       height="4.937314"
       x="15.441253"
       y="23.168224" />
    <path
       d="m 19.743018,25.463651 c 0,1.534584 -2.328333,1.534584 -2.328333,0 0,-1.561041 2.328333,-1.561041 2.328333,0 z m 5.529792,-1.164166 c -1.5875,0 -1.5875,2.328333 0,2.328333 0.69573,0 1.076038,-0.47857 1.140926,-1.001775 0.07824,-0.630836 -0.302073,-1.326558 -1.140926,-1.326558 z m 4.006935,7.68844 c -1.386402,1.109044 -1.436355,0.952669 -1.436355,0.952669 0,0 1.347678,2.877371 0.04121,3.033303 -1.306464,0.155932 -1.532067,-2.975677 -1.532067,-2.975677 l -0.875829,0.02746 c 0.396875,1.084792 1.12881,2.943129 -0.167648,2.996046 -1.322917,0.02646 -1.006894,-1.850606 -0.8645,-2.935398 l -1.171005,-0.03419 c 0.308292,1.019093 0.584181,3.003777 -0.291899,3.003777 -1.190625,0 -1.325013,-1.929981 -1.139804,-2.935397 l -0.94951,-0.03419 c 0.211667,1.058333 0.363578,2.955018 -0.959338,2.92856 -1.27,-0.05292 -0.701283,-1.842875 -0.304408,-2.927667 l -0.85093,-0.08071 c 0,0 -0.104592,3.306486 -1.555092,3.008288 -1.4505,-0.298199 -0.02495,-2.495796 0.240487,-3.221606 -1.360298,-0.07848 -4.361084,-4.286833 -2.535459,-9.393292 1.852083,-5.132916 7.699374,-5.027083 7.699374,-5.027083 0,0 5.87375,-0.105833 7.672917,5.027083 1.482834,3.205507 0.366254,7.478979 -1.020148,8.588024 z m -7.949227,-6.471357 c 0,-1.132472 -0.918049,-2.05052 -2.050521,-2.05052 -1.132471,0 -2.050521,0.918048 -2.050521,2.05052 0,1.132472 0.91805,2.05052 2.050521,2.05052 1.132472,0 2.050521,-0.918048 2.050521,-2.05052 z m 6.614583,0 c 0,-1.132472 -0.918049,-2.05052 -2.05052,-2.05052 -1.132472,0 -2.050521,0.918048 -2.050521,2.05052 0,1.132472 0.918049,2.05052 2.050521,2.05052 1.132471,0 2.05052,-0.918048 2.05052,-2.05052 z"
       id="path16"
       sodipodi:nodetypes="ssssssszczcccccsccccczcccczssssssssss"
       style="fill:#7400b3;fill-opacity:1;stroke-width:0.264583" />
  </g>
</svg>
